Coordinates
version=1
nRows=13
nColumns=36
inDegrees=yes

Units are S.I. units (second, meters, Newtons, ...)
If the header above contains a line with 'inDegrees', this indicates whether rotational values are in degrees (yes) or radians (no).

endheader
time	pelvis_tilt	pelvis_list	pelvis_rotation	pelvis_tx	pelvis_ty	pelvis_tz	hip_flexion_r	hip_adduction_r	hip_rotation_r	knee_angle_r	knee_angle_r_beta	ankle_angle_r	subtalar_angle_r	mtp_angle_r	hip_flexion_l	hip_adduction_l	hip_rotation_l	knee_angle_l	knee_angle_l_beta	ankle_angle_l	subtalar_angle_l	mtp_angle_l	lumbar_extension	lumbar_bending	lumbar_rotation	arm_flex_r	arm_add_r	arm_rot_r	elbow_flex_r	pro_sup_r	arm_flex_l	arm_add_l	arm_rot_l	elbow_flex_l	pro_sup_l
      0.00000000	      2.87880914	     -2.21197865	     -4.24636093	     -0.05545474	      1.31373120	      0.06353439	      0.88528520	      2.64298723	      1.23856559	      6.64555657	      0.11598684	     17.00550365	      6.75975659	     -6.55227914	     -0.58533969	     -2.29066572	     -2.12011253	      7.97289633	      0.13915329	     18.78142927	     -0.89573906	     -6.55227914	     -5.90343709	      2.68867147	     -3.27260011	    -15.55526167	    -12.66316289	      9.60835430	     53.17507769	     75.61067908	    -13.09831609	    -15.21166115	     18.87054136	     57.39938987	     75.82941321
      0.01666670	      1.98566205	     -1.39936764	     -4.77352786	     -0.05429224	      1.31099027	      0.06326341	      1.20160176	      1.87146606	      1.27185734	      5.59072834	      0.09757662	     17.91322851	      9.79416158	     -6.78787922	     -0.23197371	     -1.36075646	     -4.58330601	      6.60328805	      0.11524912	     17.95548566	      0.50222988	     -6.78787922	     -3.29749498	      1.76258419	     -3.36061816	    -16.17073015	    -13.65290542	     11.26666823	     54.66979259	     79.27505005	    -14.89743916	    -14.50566159	     16.84065768	     59.00980908	     79.48861744
      0.03333330	      0.48980771	     -0.67291202	     -5.55164688	     -0.05243790	      1.30943565	      0.06438079	      2.40605681	      1.30114109	      0.32525076	      4.88304338	      0.08522518	     17.78418514	     10.95521313	     -6.86769466	      1.19867612	     -0.63788833	     -6.89371716	      6.31726137	      0.11025701	     17.85657973	      1.89475798	     -6.86769466	     -0.89149866	      0.88534786	     -2.78498903	    -17.18457657	    -13.65078220	     10.33873018	     55.52905609	     78.64504564	    -15.90710055	    -14.82095371	     16.60158861	     59.61791484	     78.92138279
      0.05000000	      0.20323010	     -0.31200694	     -5.97832924	     -0.05089958	      1.30903334	      0.06553001	      2.91334174	      0.94200630	     -0.13983477	      4.11772057	      0.07186778	     18.58615939	     12.06957511	     -7.06139372	      1.01074778	     -0.20154700	     -7.95188809	      5.58543485	      0.09748423	     17.77946979	      2.71753296	     -7.06139372	     -0.40698355	      0.40832470	     -1.98471924	    -18.35132457	    -13.11860003	      7.96849063	     56.61317545	     83.01209617	    -16.19521333	    -14.84845827	     16.17512647	     60.15373033	     83.43953069
      0.06666670	      0.03292365	     -0.22271389	     -6.24634866	     -0.05117272	      1.31128019	      0.06599190	      2.88732258	      0.89392398	     -0.30701485	      3.52841598	      0.06158248	     18.48997638	     12.43307507	     -7.12078891	      0.94444851	     -0.05265121	     -8.50119250	      4.87484303	      0.08508206	     17.29143989	      2.99191337	     -7.12078891	     -0.07806231	      0.21829044	     -1.72313632	    -18.64998555	    -12.88536235	      7.82129803	     56.65722076	     81.41722066	    -16.49784551	    -14.58010751	     16.01577142	     60.50891308	     81.82948468
      0.08333330	     -0.05338502	     -0.10844678	     -6.54937078	     -0.04938534	      1.31107361	      0.06726977	      3.00085650	      0.77800363	     -0.50256601	      3.34179645	      0.05832535	     18.81329761	     12.97103031	     -7.14021924	      0.84579205	      0.07266200	     -9.27034748	      4.49233207	      0.07840599	     17.34622596	      3.97062288	     -7.14021924	      0.08621027	      0.01503265	     -1.30904345	    -18.68348827	    -12.57305329	      7.65876513	     56.26474073	     81.47423983	    -16.78387734	    -14.48725557	     15.90136098	     60.90892369	     81.94877801
      0.10000000	     -0.02127219	     -0.06851778	     -6.58709382	     -0.05061417	      1.31135818	      0.06826241	      2.88015456	      0.74382509	     -0.78528640	      2.93668860	      0.05125489	     18.65992439	     13.17932866	     -7.15685268	      0.65451914	      0.11548800	     -9.61471994	      4.17292844	      0.07283134	     16.97045613	      4.46578623	     -7.15685268	      0.09613838	     -0.10985682	     -1.10874843	    -18.21936904	    -12.10701611	      7.58023420	     55.22254064	     81.50612197	    -16.53480539	    -14.58850797	     16.05758986	     60.86832926	     82.09806274
      0.11666670	      0.02393511	     -0.03216300	     -6.55847786	     -0.04940327	      1.31084642	      0.06827472	      2.72093027	      0.75612847	     -0.88359623	      2.62964575	      0.04589598	     18.47507699	     13.43795444	     -7.26486547	      0.53013295	      0.13561495	     -9.94711517	      4.07370549	      0.07109957	     16.75757502	      5.09454867	     -7.26486547	      0.19198169	     -0.24670592	     -0.98485028	    -17.55642430	    -11.63414167	      7.42343476	     53.87615347	     84.38883484	    -16.37538653	    -14.63004211	     16.03682665	     60.56938317	     85.83111162
      0.13333330	      0.24772559	     -0.12114203	     -6.58436375	     -0.04942713	      1.30921045	      0.06855334	      2.24479174	      0.87983906	     -0.96178179	      2.61434381	      0.04562891	     18.22993538	     13.56044954	     -7.27964128	      0.22501759	      0.03523684	    -10.16824899	      4.10590786	      0.07166161	     16.45149204	      5.13809331	     -7.27964128	      0.03222468	     -0.24443602	     -0.83631020	    -16.93853203	    -11.29868905	      7.40398469	     52.76180494	     83.69626317	    -16.15586146	    -14.66865843	     16.21453142	     60.41584083	     85.24432963
      0.15000000	      0.24635590	     -0.12733498	     -6.68822151	     -0.05180281	      1.31261140	      0.06885096	      2.23166608	      0.89404563	     -1.19343714	      2.59286721	      0.04525407	     17.99355567	     13.67012868	     -7.28547625	      0.16454427	     -0.01139178	    -10.66982664	      4.13274752	      0.07213005	     16.04171591	      5.49606320	     -7.28547625	      0.10386743	     -0.27703055	     -0.62423133	    -15.96682309	    -10.95930324	      7.51199938	     51.24578924	     83.71388693	    -15.67791432	    -14.71925673	     16.54817601	     60.05041871	     85.41880647
      0.16666670	      0.31729638	     -0.23068249	     -6.79045395	     -0.05045424	      1.31150927	      0.06926809	      1.74806872	      1.09193901	     -1.24696018	      2.58228260	      0.04506933	     17.11844518	     13.64431569	     -7.29980958	      0.01690553	     -0.17222762	    -11.21883599	      4.22516788	      0.07374309	     15.46483518	      5.26711497	     -7.29980958	      0.03152539	     -0.21464562	     -0.45853385	    -15.07246973	    -10.68672122	      7.68492238	     50.06354357	     82.99028150	    -15.67942851	    -14.74761451	     16.76794288	     59.62419708	     84.79278334
      0.18333330	      0.30059851	     -0.22614290	     -6.94606830	     -0.05071823	      1.31331348	      0.06953865	      1.62390023	      1.10795916	     -1.91611131	      2.90436761	      0.05069078	     16.83899776	     14.11766730	     -7.35960940	     -0.08734807	     -0.21174927	    -11.68128126	      4.23314772	      0.07388237	     15.11114932	      5.39985636	     -7.35960940	      0.03927022	     -0.25901824	     -0.33823994	    -13.98336810	    -10.60624081	      8.81443928	     48.39746121	     80.07415439	    -15.67219320	    -14.92812917	     17.61734827	     59.25996978	     81.94020940
      0.20000000	      0.31761981	     -0.24976557	     -7.16282459	     -0.04993751	      1.31122886	      0.06985686	      1.56329493	      1.14967640	     -1.96048777	      2.64675148	      0.04619453	     16.48158510	     13.93970390	     -7.38222477	     -0.12409724	     -0.20505302	    -12.13742999	      4.00358435	      0.06987573	     14.76045861	      5.29701471	     -7.38222477	      0.02922338	     -0.22809361	     -0.12740237	    -13.27751876	    -10.39678659	      9.00604597	     47.55168913	     78.54239402	    -15.58634588	    -14.84137267	     17.78812763	     59.15475589	     80.67511423
